<svg width="234" height="95" viewBox="0 0 234 95" fill="none" xmlns="http://www.w3.org/2000/svg">
<path d="M43.7642 16.1494C40.9046 16.1494 38.5898 18.1919 37.2009 21.5144L34.641 20.5068C36.4384 15.5231 40.4962 11.8465 46.3241 11.8465C52.5606 11.8465 56.5366 15.6865 56.5366 21.8684V34.3141C56.5366 35.8392 57.163 36.6017 58.2523 36.6017C59.2055 36.6017 59.9681 36.2205 60.6217 35.5941L61.9016 37.3915C60.5672 38.8621 58.3885 40.5233 55.9647 40.5233C52.9691 40.5233 50.5453 39.1072 49.5104 36.0571C47.8492 38.0996 44.8535 40.4689 41.1498 40.4689C37.3915 40.4689 34.1235 37.9906 34.1235 33.7695C34.1235 29.63 37.6911 27.7236 41.8306 26.1713L49.2926 23.5024V21.9774C49.2926 18.6821 47.713 16.1494 43.7642 16.1494ZM45.0986 27.5602C42.6748 28.4589 41.0681 29.6572 41.0681 32.1627C41.0681 34.9133 42.5931 36.3839 44.5812 36.3839C46.3786 36.3839 48.0943 35.3762 49.2926 34.0963V26.0079L45.0986 27.5602Z" fill="white"/>
<path d="M74.8644 37.1192H78.1869V39.788H64.4067V37.1192H67.6475V2.69611H63.5625V0.027235H74.8371V37.1192H74.8644Z" fill="white"/>
<path d="M80.3657 26.0896C80.3657 17.3477 87.2013 11.7921 94.2003 11.7921C101.145 11.7921 107.98 17.3477 107.98 26.0896C107.98 34.886 101.145 40.4416 94.2003 40.4416C87.1741 40.4416 80.3657 34.886 80.3657 26.0896ZM94.2003 14.352C90.4421 14.352 88.0728 18.3826 88.0728 26.0896C88.0728 33.8784 90.4421 37.8817 94.2003 37.8817C97.904 37.8817 100.328 33.8511 100.328 26.0896C100.328 18.3826 97.904 14.352 94.2003 14.352Z" fill="white"/>
<path d="M124.43 39.788H110.649V37.1192H113.972V15.1146H110.649V12.4457H121.107V16.4762C123.395 14.3792 126.472 11.8193 130.366 11.8193C136.031 11.8193 138.4 16.095 138.4 21.4599V37.1464H141.723V39.8153H127.943V37.1464H131.265V22.4131C131.265 19.0906 130.312 16.1767 126.744 16.1767C124.566 16.1767 122.796 16.9392 121.134 18.3553V37.1736H124.457V39.788H124.43Z" fill="white"/>
<path d="M151.717 6.75389L154.522 0H151.826L150.791 3.43141L149.729 0H147.06L149.838 6.75389H151.717Z" fill="#FFAD15"/>
<path d="M149.838 14.3792L147.06 21.1331H149.729L150.791 17.7017L151.826 21.1331H154.522L151.717 14.3792H149.838Z" fill="#FFAD15"/>
<path d="M146.978 9.64063L140.225 6.83559V9.50446L143.629 10.5666L140.225 11.6287V14.2975L146.978 11.5197V9.64063Z" fill="#FFAD15"/>
<path d="M161.358 6.83559L154.604 9.64063V11.5197L161.358 14.2975V11.6287L157.927 10.5666L161.358 9.50446V6.83559Z" fill="#FFAD15"/>
<path d="M147.414 12.6091L140.66 15.4141L142.566 17.2932L145.726 15.632L144.064 18.7911L145.943 20.6974L148.748 13.9435L147.414 12.6091Z" fill="#FFAD15"/>
<path d="M154.141 8.52406L160.895 5.74625L159.016 3.83991L155.829 5.52838L157.518 2.34208L155.611 0.462971L152.833 7.21686L154.141 8.52406Z" fill="#FFAD15"/>
<path d="M152.833 13.9435L155.611 20.6974L157.518 18.7911L155.829 15.632L159.016 17.2932L160.895 15.4141L154.141 12.6091L152.833 13.9435Z" fill="#FFAD15"/>
<path d="M148.748 7.21686L145.943 0.462971L144.064 2.34208L145.726 5.52838L142.566 3.83991L140.66 5.74625L147.414 8.52406L148.748 7.21686Z" fill="#FFAD15"/>
<path d="M21.8141 81.4824L11.3564 47.9308L8.68757 78.1055H13.7258V81.1011H0.0273438V78.1055H5.25617L7.97951 46.9777H3.32258V43.982H17.3478L24.8642 68.3559L32.3807 43.982H45.834V46.9777H41.5039L44.1727 78.1055H48.5845V81.1011H32.5168V78.1055H36.7925L34.1781 47.8219L23.5843 81.4824H21.8141V81.4824Z" fill="white"/>
<path d="M49.8096 67.4027C49.8096 58.6608 56.6452 53.1052 63.6441 53.1052C70.5887 53.1052 77.4243 58.6608 77.4243 67.4027C77.4243 76.1991 70.5887 81.7547 63.6441 81.7547C56.6452 81.7547 49.8096 76.1991 49.8096 67.4027ZM57.5166 67.4027C57.5166 75.1915 59.8859 79.1948 63.6441 79.1948C67.3479 79.1948 69.7717 75.1643 69.7717 67.4027C69.7717 59.6957 67.3479 55.6651 63.6441 55.6651C59.8859 55.6651 57.5166 59.6684 57.5166 67.4027Z" fill="white"/>
<path d="M94.8267 81.1011H79.7666V78.4323H83.0891V56.4277H79.7666V53.7588H90.2242V59.1782C92.7842 56.1281 95.5892 53.1324 97.8224 53.1324C100.056 53.1324 102.098 54.6575 103.106 56.0736L99.6742 61.7382C97.8224 60.0769 96.2973 58.797 94.4999 58.797C93.4106 58.797 92.0217 59.2327 90.2242 60.8395V78.4323H94.8267V81.1011V81.1011Z" fill="white"/>
<path d="M108.852 53.7588V48.0125L115.987 45.0713V53.7315H123.967V56.4004H115.987V73.503C115.987 75.9268 117.185 77.6425 119.8 77.6425C121.461 77.6425 122.741 76.7438 124.593 74.9736L126.009 76.6349C123.531 79.8756 120.344 81.7275 116.559 81.7275C112.42 81.7275 108.852 79.2493 108.852 74.2656V56.4004H105.094V53.7315H108.852V53.7588Z" fill="white"/>
<path d="M138.455 94.5C130.666 94.5 124.348 91.7494 124.348 87.1742C124.348 83.6066 128.242 81.7548 132.327 80.8016C130.856 80.1752 129.713 78.8952 129.713 76.9072C129.713 74.429 131.946 72.3864 134.37 71.2426C129.767 70.0988 126.662 66.7219 126.662 62.4462C126.662 57.0268 131.701 53.1324 138.209 53.1324C139.735 53.1324 141.26 53.3231 142.621 53.7588H153.079V56.6183H147.414C148.885 58.1434 149.784 60.1859 149.784 62.419C149.784 67.8385 144.745 71.7329 138.237 71.7329C137.665 71.7329 137.093 71.7328 136.575 71.6784C135.377 72.2503 134.587 73.2851 134.587 74.1021C134.587 75.0009 135.35 75.3004 136.385 75.5183L145.508 77.5063C150.356 78.5957 153.024 80.6382 153.024 84.5326C152.997 90.878 145.535 94.5 138.455 94.5ZM134.233 81.6731C131.81 82.3811 129.713 84.0424 129.713 86.3844C129.713 89.952 133.607 91.8583 138.455 91.8583C142.921 91.8583 147.115 90.2516 147.115 87.2014C147.115 85.1589 146.025 84.3964 143.22 83.77L134.233 81.6731ZM138.209 55.3383C135.214 55.3383 133.362 58.0072 133.362 62.419C133.362 66.7491 135.214 69.4452 138.209 69.4452C141.151 69.4452 143.057 66.7764 143.057 62.419C143.057 58.0072 141.123 55.3383 138.209 55.3383Z" fill="white"/>
<path d="M164.163 57.4353C161.304 57.4353 158.989 59.4778 157.6 62.8003L155.04 61.7927C156.837 56.8089 160.895 53.1324 166.723 53.1324C172.959 53.1324 176.936 56.9723 176.936 63.1543V75.6C176.936 77.1251 177.562 77.8876 178.651 77.8876C179.604 77.8876 180.367 77.5063 181.021 76.88L182.301 78.6774C180.966 80.148 178.787 81.8092 176.364 81.8092C173.368 81.8092 170.944 80.3931 169.909 77.3429C168.248 79.3854 165.252 81.7548 161.549 81.7548C157.79 81.7548 154.522 79.2765 154.522 75.0553C154.522 70.9158 158.09 69.0095 162.23 67.4572L169.691 64.7883V63.2632C169.691 59.9952 168.112 57.4353 164.163 57.4353ZM165.498 68.8733C163.074 69.772 161.467 70.9703 161.467 73.4758C161.467 76.2264 162.992 77.697 164.98 77.697C166.777 77.697 168.493 76.6893 169.691 75.4094V67.321L165.498 68.8733Z" fill="white"/>
<path d="M194.12 94.5C186.331 94.5 180.013 91.7494 180.013 87.1742C180.013 83.6066 183.908 81.7548 187.993 80.8016C186.522 80.1752 185.378 78.8952 185.378 76.9072C185.378 74.429 187.611 72.3864 190.035 71.2426C185.433 70.0988 182.328 66.7219 182.328 62.4462C182.328 57.0268 187.366 53.1324 193.875 53.1324C195.4 53.1324 196.925 53.3231 198.287 53.7588H208.744V56.6183H203.053C204.523 58.1434 205.422 60.1859 205.422 62.419C205.422 67.8385 200.384 71.7329 193.875 71.7329C193.303 71.7329 192.731 71.7328 192.214 71.6784C191.015 72.2503 190.226 73.2851 190.226 74.1021C190.226 75.0009 190.988 75.3004 192.023 75.5183L201.146 77.5063C205.994 78.5957 208.663 80.6382 208.663 84.5326C208.663 90.878 201.201 94.5 194.12 94.5ZM189.926 81.6731C187.502 82.3811 185.405 84.0424 185.405 86.3844C185.405 89.952 189.3 91.8583 194.147 91.8583C198.614 91.8583 202.808 90.2516 202.808 87.2014C202.808 85.1589 201.718 84.3964 198.913 83.77L189.926 81.6731ZM193.875 55.3383C190.879 55.3383 189.027 58.0072 189.027 62.419C189.027 66.7491 190.879 69.4452 193.875 69.4452C196.816 69.4452 198.723 66.7764 198.723 62.419C198.723 58.0072 196.816 55.3383 193.875 55.3383Z" fill="white"/>
<path d="M222.878 81.7548C215.607 81.7548 209.18 76.4715 209.18 68.1108C209.18 59.8318 215.171 53.1324 222.306 53.1324C230.013 53.1324 233.526 59.0693 233.608 65.8777H215.879C216.206 73.0945 220.972 77.3702 226.201 77.3702C228.379 77.3702 230.612 76.7438 232.655 74.5651L233.989 76.0902C231.511 79.5761 227.426 81.7548 222.878 81.7548ZM215.934 63.3722H226.827C226.636 58.7153 224.921 55.529 221.843 55.529C219.202 55.529 216.505 58.334 215.934 63.3722Z" fill="white"/>
<path d="M35.0767 5.69178L20.997 40.4416H18.1919L3.70374 5.69178H0V2.69611H16.3128V5.69178H11.901L21.7323 30.6376L31.4818 5.69178H26.0352V2.69611H39.0527V5.69178H35.0767Z" fill="white"/>
</svg>
