<?xml version="1.0" encoding="UTF-8"?>
<svg id="Layer_1" data-name="Layer 1" xmlns="http://www.w3.org/2000/svg" viewBox="0 0 233.99 94.5">
  <path d="m43.76,16.15c-2.86,0-5.17,2.04-6.56,5.36l-2.56-1.01c1.8-4.98,5.86-8.66,11.68-8.66,6.24,0,10.21,3.84,10.21,10.02v12.45c0,1.53.63,2.29,1.72,2.29.95,0,1.72-.38,2.37-1.01l1.28,1.8c-1.33,1.47-3.51,3.13-5.94,3.13-3,0-5.42-1.42-6.45-4.47-1.66,2.04-4.66,4.41-8.36,4.41s-7.03-2.48-7.03-6.7,3.57-6.05,7.71-7.6l7.46-2.67v-1.52c0-3.3-1.58-5.83-5.53-5.83Zm1.33,11.41c-2.42.9-4.03,2.1-4.03,4.6,0,2.75,1.53,4.22,3.51,4.22,1.8,0,3.51-1.01,4.71-2.29v-8.09l-4.19,1.55Z"/>
  <path d="m74.86,37.12h3.32v2.67h-13.78v-2.67h3.24V2.7h-4.08V.03h11.27v37.09h.03Z"/>
  <path d="m80.37,26.09c0-8.74,6.84-14.3,13.83-14.3s13.78,5.56,13.78,14.3-6.84,14.35-13.78,14.35-13.83-5.56-13.83-14.35Zm13.83-11.74c-3.76,0-6.13,4.03-6.13,11.74s2.37,11.79,6.13,11.79,6.13-4.03,6.13-11.79-2.42-11.74-6.13-11.74Z"/>
  <path d="m124.43,39.79h-13.78v-2.67h3.32V15.11h-3.32v-2.67h10.46v4.03c2.29-2.1,5.36-4.66,9.26-4.66,5.67,0,8.03,4.28,8.03,9.64v15.69h3.32v2.67h-13.78v-2.67h3.32v-14.73c0-3.32-.95-6.24-4.52-6.24-2.18,0-3.95.76-5.61,2.18v18.82h3.32v2.61h-.03Z"/>
  <path d="m151.72,6.75l2.81-6.75h-2.7l-1.04,3.43-1.06-3.43h-2.67l2.78,6.75h1.88Z"/>
  <path d="m149.84,14.38l-2.78,6.75h2.67l1.06-3.43,1.04,3.43h2.7l-2.81-6.75h-1.88Z"/>
  <path d="m146.98,9.64l-6.75-2.81v2.67l3.4,1.06-3.4,1.06v2.67l6.75-2.78v-1.88Z"/>
  <path d="m161.36,6.84l-6.75,2.81v1.88l6.75,2.78v-2.67l-3.43-1.06,3.43-1.06v-2.67Z"/>
  <path d="m147.41,12.61l-6.75,2.8,1.91,1.88,3.16-1.66-1.66,3.16,1.88,1.91,2.81-6.75-1.33-1.33Z"/>
  <path d="m154.14,8.52l6.75-2.78-1.88-1.91-3.19,1.69,1.69-3.19-1.91-1.88-2.78,6.75,1.31,1.31Z"/>
  <path d="m152.83,13.94l2.78,6.75,1.91-1.91-1.69-3.16,3.19,1.66,1.88-1.88-6.75-2.8-1.31,1.33Z"/>
  <path d="m148.75,7.22l-2.81-6.75-1.88,1.88,1.66,3.19-3.16-1.69-1.91,1.91,6.75,2.78,1.33-1.31Z"/>
  <path d="m21.81,81.48l-10.46-33.55-2.67,30.17h5.04v3H.03v-3h5.23l2.72-31.13H3.32v-3h14.03l7.52,24.37,7.52-24.37h13.45v3h-4.33l2.67,31.13h4.41v3h-16.07v-3h4.28l-2.61-30.28-10.59,33.66h-1.77Z"/>
  <path d="m49.81,67.4c0-8.74,6.84-14.3,13.83-14.3s13.78,5.56,13.78,14.3-6.84,14.35-13.78,14.35-13.83-5.56-13.83-14.35Zm7.71,0c0,7.79,2.37,11.79,6.13,11.79s6.13-4.03,6.13-11.79-2.42-11.74-6.13-11.74-6.13,4-6.13,11.74Z"/>
  <path d="m94.83,81.1h-15.06v-2.67h3.32v-22h-3.32v-2.67h10.46v5.42c2.56-3.05,5.37-6.05,7.6-6.05s4.28,1.53,5.28,2.94l-3.43,5.66c-1.85-1.66-3.38-2.94-5.17-2.94-1.09,0-2.48.44-4.28,2.04v17.59h4.6v2.67h0Z"/>
  <path d="m108.85,53.76v-5.75l7.14-2.94v8.66h7.98v2.67h-7.98v17.1c0,2.42,1.2,4.14,3.81,4.14,1.66,0,2.94-.9,4.79-2.67l1.42,1.66c-2.48,3.24-5.67,5.09-9.45,5.09-4.14,0-7.71-2.48-7.71-7.46v-17.87h-3.76v-2.67h3.76v.03Z"/>
  <path d="m138.46,94.5c-7.79,0-14.11-2.75-14.11-7.33,0-3.57,3.89-5.42,7.98-6.37-1.47-.63-2.61-1.91-2.61-3.89,0-2.48,2.23-4.52,4.66-5.66-4.6-1.14-7.71-4.52-7.71-8.8,0-5.42,5.04-9.31,11.55-9.31,1.53,0,3.05.19,4.41.63h10.46v2.86h-5.66c1.47,1.53,2.37,3.57,2.37,5.8,0,5.42-5.04,9.31-11.55,9.31-.57,0-1.14,0-1.66-.05-1.2.57-1.99,1.61-1.99,2.42,0,.9.76,1.2,1.8,1.42l9.12,1.99c4.85,1.09,7.52,3.13,7.52,7.03-.03,6.35-7.49,9.97-14.57,9.97Zm-4.22-12.83c-2.42.71-4.52,2.37-4.52,4.71,0,3.57,3.89,5.47,8.74,5.47,4.47,0,8.66-1.61,8.66-4.66,0-2.04-1.09-2.81-3.9-3.43l-8.99-2.1Zm3.98-26.33c-2.99,0-4.85,2.67-4.85,7.08s1.85,7.03,4.85,7.03,4.85-2.67,4.85-7.03-1.93-7.08-4.85-7.08Z"/>
  <path d="m164.16,57.44c-2.86,0-5.17,2.04-6.56,5.37l-2.56-1.01c1.8-4.98,5.86-8.66,11.68-8.66,6.24,0,10.21,3.84,10.21,10.02v12.45c0,1.53.63,2.29,1.71,2.29.95,0,1.72-.38,2.37-1.01l1.28,1.8c-1.33,1.47-3.51,3.13-5.94,3.13-3,0-5.42-1.42-6.46-4.47-1.66,2.04-4.66,4.41-8.36,4.41s-7.03-2.48-7.03-6.7,3.57-6.05,7.71-7.6l7.46-2.67v-1.52c0-3.27-1.58-5.83-5.53-5.83Zm1.34,11.44c-2.42.9-4.03,2.1-4.03,4.6,0,2.75,1.53,4.22,3.51,4.22,1.8,0,3.51-1.01,4.71-2.29v-8.09l-4.19,1.55Z"/>
  <path d="m194.12,94.5c-7.79,0-14.11-2.75-14.11-7.33,0-3.57,3.9-5.42,7.98-6.37-1.47-.63-2.61-1.91-2.61-3.89,0-2.48,2.23-4.52,4.66-5.66-4.6-1.14-7.71-4.52-7.71-8.8,0-5.42,5.04-9.31,11.55-9.31,1.52,0,3.05.19,4.41.63h10.46v2.86h-5.69c1.47,1.53,2.37,3.57,2.37,5.8,0,5.42-5.04,9.31-11.55,9.31-.57,0-1.14,0-1.66-.05-1.2.57-1.99,1.61-1.99,2.42,0,.9.76,1.2,1.8,1.42l9.12,1.99c4.85,1.09,7.52,3.13,7.52,7.03,0,6.35-7.46,9.97-14.54,9.97Zm-4.19-12.83c-2.42.71-4.52,2.37-4.52,4.71,0,3.57,3.9,5.47,8.74,5.47,4.47,0,8.66-1.61,8.66-4.66,0-2.04-1.09-2.81-3.9-3.43l-8.99-2.1Zm3.95-26.33c-3,0-4.85,2.67-4.85,7.08s1.85,7.03,4.85,7.03,4.85-2.67,4.85-7.03-1.91-7.08-4.85-7.08Z"/>
  <path d="m222.88,81.75c-7.27,0-13.7-5.28-13.7-13.64s5.99-14.98,13.13-14.98c7.71,0,11.22,5.94,11.3,12.75h-17.73c.33,7.22,5.09,11.49,10.32,11.49,2.18,0,4.41-.63,6.45-2.81l1.33,1.53c-2.48,3.49-6.56,5.66-11.11,5.66Zm-6.94-18.38h10.89c-.19-4.66-1.91-7.84-4.98-7.84-2.64,0-5.34,2.81-5.91,7.84Z"/>
  <path d="m35.08,5.69l-14.08,34.75h-2.81L3.7,5.69H0v-3h16.31v3h-4.41l9.83,24.95L31.48,5.69h-5.45v-3h13.02v3h-3.98Z"/>
</svg>